<?xml version="1.0" encoding="utf-8"?>
<!-- Generator: Adobe Illustrator 22.0.1, SVG Export Plug-In . SVG Version: 6.00 Build 0)  -->
<svg version="1.1" id="Layer_1" xmlns="http://www.w3.org/2000/svg" xmlns:xlink="http://www.w3.org/1999/xlink" x="0px" y="0px"
	 viewBox="0 0 97.711 27.156" style="enable-background:new 0 0 97.711 27.156;" xml:space="preserve">
<style type="text/css">
	.st0{fill:#FFFFFF;}
</style>
<g>
	<path class="st0" d="M0.715,26.924V15.5h8.361l-0.018,2.564H3.181l0.715-0.724v9.584H0.715z M15.131,27.156
		c-0.911,0-1.751-0.152-2.519-0.447c-0.777-0.286-1.447-0.706-2.019-1.242c-0.563-0.545-1.009-1.17-1.322-1.885
		c-0.313-0.724-0.473-1.51-0.473-2.367c0-0.866,0.161-1.652,0.473-2.367c0.313-0.724,0.759-1.349,1.322-1.885
		c0.572-0.545,1.242-0.956,2.019-1.251c0.768-0.295,1.608-0.447,2.519-0.447c0.929,0,1.769,0.152,2.537,0.447
		c0.768,0.295,1.429,0.706,1.992,1.251c0.572,0.536,1.009,1.161,1.331,1.885c0.322,0.715,0.482,1.501,0.482,2.367
		c0,0.858-0.161,1.644-0.482,2.367s-0.759,1.358-1.331,1.894c-0.563,0.527-1.224,0.947-1.992,1.233
		C16.9,27.005,16.06,27.156,15.131,27.156L15.131,27.156z M15.131,24.477c0.438,0,0.84-0.071,1.215-0.232
		c0.375-0.152,0.706-0.366,0.983-0.661c0.277-0.286,0.491-0.625,0.652-1.036c0.152-0.402,0.232-0.849,0.232-1.331
		c0-0.5-0.08-0.956-0.232-1.349c-0.161-0.402-0.375-0.741-0.652-1.027c-0.277-0.295-0.607-0.509-0.983-0.661
		c-0.375-0.152-0.777-0.232-1.215-0.232c-0.429,0-0.84,0.08-1.206,0.232c-0.375,0.152-0.706,0.366-0.983,0.661
		c-0.277,0.286-0.491,0.625-0.652,1.027c-0.152,0.393-0.232,0.849-0.232,1.349c0,0.482,0.08,0.929,0.232,1.331
		c0.161,0.411,0.375,0.75,0.652,1.036c0.277,0.295,0.607,0.509,0.983,0.661C14.292,24.405,14.703,24.477,15.131,24.477
		L15.131,24.477z M23.349,27.121c-0.223,0-0.456-0.018-0.697-0.045c-0.241-0.036-0.5-0.089-0.777-0.152l0.188-2.644
		c0.152,0.036,0.295,0.054,0.438,0.054c0.447,0,0.777-0.179,1.009-0.536c0.223-0.348,0.384-0.849,0.482-1.492
		c0.089-0.643,0.143-1.393,0.17-2.251l0.161-4.555h9.191v11.424h-3.18V17.34l0.697,0.724h-4.609l0.652-0.75l-0.08,2.608
		c-0.036,1.108-0.107,2.108-0.223,3.001c-0.125,0.884-0.313,1.644-0.572,2.269c-0.259,0.625-0.625,1.099-1.09,1.429
		C24.653,26.96,24.064,27.121,23.349,27.121L23.349,27.121z M41.562,27.156c-0.92,0-1.76-0.152-2.528-0.447
		c-0.768-0.286-1.438-0.706-2.01-1.242c-0.572-0.545-1.018-1.17-1.331-1.885c-0.313-0.724-0.473-1.51-0.473-2.367
		c0-0.866,0.161-1.652,0.473-2.367c0.313-0.724,0.759-1.349,1.331-1.885c0.572-0.545,1.242-0.956,2.01-1.251
		c0.768-0.295,1.608-0.447,2.528-0.447s1.76,0.152,2.528,0.447s1.429,0.706,2.001,1.251c0.563,0.536,1,1.161,1.322,1.885
		c0.322,0.715,0.482,1.501,0.482,2.367c0,0.858-0.161,1.644-0.482,2.367s-0.759,1.358-1.322,1.894
		c-0.572,0.527-1.233,0.947-2.001,1.233C43.322,27.005,42.482,27.156,41.562,27.156L41.562,27.156z M41.562,24.477
		c0.429,0,0.84-0.071,1.206-0.232c0.375-0.152,0.706-0.366,0.983-0.661c0.277-0.286,0.491-0.625,0.652-1.036
		c0.152-0.402,0.232-0.849,0.232-1.331c0-0.5-0.08-0.956-0.232-1.349c-0.161-0.402-0.375-0.741-0.652-1.027
		c-0.277-0.295-0.607-0.509-0.983-0.661c-0.366-0.152-0.777-0.232-1.206-0.232c-0.438,0-0.84,0.08-1.215,0.232
		s-0.706,0.366-0.983,0.661c-0.277,0.286-0.491,0.625-0.652,1.027c-0.152,0.393-0.232,0.849-0.232,1.349
		c0,0.482,0.08,0.929,0.232,1.331c0.161,0.411,0.375,0.75,0.652,1.036c0.277,0.295,0.607,0.509,0.983,0.661
		C40.722,24.405,41.124,24.477,41.562,24.477L41.562,24.477z M49.619,26.924V15.5h5.538c1.376,0,2.439,0.259,3.189,0.777
		c0.759,0.518,1.134,1.251,1.134,2.197c0,0.92-0.357,1.644-1.063,2.179c-0.706,0.527-1.652,0.786-2.832,0.786l0.322-0.768
		c1.286,0,2.287,0.259,3.01,0.759c0.724,0.509,1.081,1.251,1.081,2.233c0,1-0.384,1.795-1.161,2.376
		c-0.777,0.59-1.903,0.884-3.367,0.884h-5.851V26.924z M52.799,24.611h2.546c0.464,0,0.813-0.107,1.045-0.304
		c0.232-0.205,0.348-0.5,0.348-0.893s-0.116-0.679-0.348-0.866c-0.232-0.197-0.581-0.286-1.045-0.286h-2.546
		C52.799,22.262,52.799,24.611,52.799,24.611z M52.799,20.073h2.054c0.456,0,0.795-0.098,1.027-0.286
		c0.223-0.197,0.339-0.473,0.339-0.84c0-0.375-0.116-0.652-0.339-0.849c-0.232-0.188-0.572-0.286-1.027-0.286h-2.054
		C52.799,17.812,52.799,20.073,52.799,20.073z M60.606,26.924L65.635,15.5h3.18l5.047,11.424h-3.359l-3.939-9.843h1.268
		l-3.939,9.843H60.606z M63.357,24.709l0.831-2.385h5.574l0.831,2.385H63.357z"/>
	<path class="st0" d="M6.27,11.882c-0.902,0-1.733-0.143-2.501-0.429C3.01,11.167,2.34,10.756,1.786,10.22
		c-0.563-0.536-1-1.161-1.313-1.885C0.16,7.611,0,6.817,0,5.941C0,5.075,0.161,4.28,0.473,3.556c0.313-0.724,0.75-1.358,1.313-1.894
		C2.34,1.135,3.01,0.724,3.769,0.438C4.537,0.143,5.368,0,6.27,0c1.054,0,2.001,0.188,2.832,0.554
		c0.831,0.375,1.518,0.902,2.072,1.599L9.12,4.02c-0.366-0.438-0.768-0.768-1.206-1C7.467,2.797,6.976,2.681,6.44,2.681
		c-0.473,0-0.902,0.071-1.295,0.223c-0.384,0.152-0.724,0.375-1,0.661C3.868,3.86,3.654,4.199,3.493,4.601
		C3.341,5.012,3.261,5.45,3.261,5.941c0,0.491,0.08,0.938,0.232,1.34c0.161,0.402,0.375,0.75,0.652,1.036s0.616,0.509,1,0.661
		C5.538,9.13,5.967,9.21,6.44,9.21c0.536,0,1.027-0.116,1.474-0.348c0.438-0.223,0.84-0.554,1.206-0.991l2.054,1.858
		c-0.554,0.688-1.242,1.215-2.072,1.59C8.271,11.695,7.324,11.882,6.27,11.882L6.27,11.882z M11.29,11.659l5.038-11.424h3.171
		l5.056,11.424h-3.359l-3.939-9.843h1.268l-3.948,9.843H11.29z M14.042,9.435l0.831-2.376h5.574l0.831,2.376H14.042z M24.376,0.217
		h3.698l2.028,3.1l2.028-3.1h3.743L32.13,5.684l4.073,5.976h-3.796l-2.305-3.376l-2.278,3.376h-3.716l4.055-5.833L24.376,0.217z
		 M35.774,11.659l5.038-11.424h3.171l5.056,11.424H45.68l-3.939-9.843h1.268l-3.939,9.843H35.774z M38.525,9.435l0.831-2.376h5.574
		l0.831,2.376H38.525z M50.343,11.659V0.234h5.208c1.045,0,1.947,0.17,2.698,0.5c0.759,0.339,1.34,0.831,1.751,1.465
		c0.411,0.634,0.616,1.393,0.616,2.26c0,0.858-0.205,1.608-0.616,2.233c-0.411,0.634-0.991,1.125-1.751,1.465
		c-0.75,0.339-1.652,0.509-2.698,0.509H52.13l1.438-1.402v4.395H50.343z M53.567,7.613l-1.438-1.492h3.225
		c0.679,0,1.179-0.143,1.51-0.438s0.5-0.706,0.5-1.224c0-0.536-0.17-0.947-0.5-1.242s-0.831-0.438-1.51-0.438h-3.225l1.438-1.492
		C53.567,1.287,53.567,7.613,53.567,7.613z M69.69,0.234h3.225v11.424H69.69V0.234z M65.295,11.659H62.07V0.234h3.225V11.659z
		 M69.922,7.202h-4.859v-2.68h4.859V7.202z M74.219,11.659l5.038-11.424h3.18l5.047,11.424h-3.359l-3.939-9.843h1.268l-3.939,9.843
		H74.219z M76.979,9.435l0.831-2.376h5.565l0.831,2.376H76.979z M94.54,11.659V8.113l0.759,0.67h-2.876
		c-1.027,0-1.903-0.17-2.644-0.5c-0.741-0.339-1.304-0.822-1.706-1.456c-0.393-0.634-0.59-1.385-0.59-2.251
		c0-0.902,0.205-1.679,0.625-2.331c0.42-0.643,1.009-1.143,1.778-1.492c0.768-0.348,1.661-0.518,2.698-0.518h5.127v11.424
		C97.711,11.659,94.54,11.659,94.54,11.659z M87.519,11.659l2.849-4.127h3.242l-2.706,4.127H87.519z M94.54,7.086V1.977l0.759,0.804
		h-2.653c-0.625,0-1.108,0.143-1.429,0.429c-0.313,0.286-0.473,0.732-0.473,1.313s0.161,1.018,0.473,1.313
		c0.322,0.304,0.786,0.456,1.393,0.456h2.689L94.54,7.086z"/>
</g>
</svg>
