<?xml version="1.0" encoding="utf-8"?>
<!-- Generator: Adobe Illustrator 22.0.1, SVG Export Plug-In . SVG Version: 6.00 Build 0)  -->
<svg version="1.1" id="Layer_1" xmlns="http://www.w3.org/2000/svg" xmlns:xlink="http://www.w3.org/1999/xlink" x="0px" y="0px"
	 viewBox="0 0 48.87 11.707" style="enable-background:new 0 0 48.87 11.707;" xml:space="preserve">
<style type="text/css">
	.st0{fill:#FFFFFF;}
</style>
<g>
	<path class="st0" d="M0,11.442L5.038,0.018h3.171l5.056,11.424H9.906L5.967,1.599h1.268l-3.939,9.843H0z M2.752,9.227l0.831-2.385
		h5.574l0.831,2.385H2.752z M13.086,0h3.698l2.037,3.1L20.84,0h3.743L20.84,5.467l4.073,5.976h-3.796l-2.296-3.376l-2.287,3.376
		h-3.716l4.064-5.824L13.086,0z M26.815,8.879c0.643,0.188,1.161,0.241,1.572,0.17c0.411-0.071,0.768-0.339,1.081-0.804l0.554-0.813
		l0.277-0.313l3.555-7.101h3.144l-4.725,8.834c-0.464,0.866-1.027,1.545-1.67,2.019c-0.643,0.482-1.358,0.75-2.126,0.822
		c-0.768,0.063-1.581-0.08-2.43-0.429L26.815,8.879z M30.254,9.709l-5.216-9.692h3.403l3.573,7.414L30.254,9.709z M45.645,0.018
		h3.225v11.424h-3.225V0.018z M41.25,11.442h-3.225V0.018h3.225V11.442z M45.877,6.985h-4.859V4.314h4.859V6.985z"/>
</g>
</svg>
