<?xml version="1.0" encoding="utf-8"?>
<!-- Generator: Adobe Illustrator 22.0.1, SVG Export Plug-In . SVG Version: 6.00 Build 0)  -->
<svg version="1.1" id="Layer_1" xmlns="http://www.w3.org/2000/svg" xmlns:xlink="http://www.w3.org/1999/xlink" x="0px" y="0px"
	 viewBox="0 0 58.923 50" style="enable-background:new 0 0 58.923 50;" xml:space="preserve">
<style type="text/css">
	.st0{opacity:0.2;fill:#FFFFFF;enable-background:new    ;}
	.st1{fill:#FFFFFF;}
</style>
<polygon class="st0" points="57.282,50 37.063,17.345 32.038,21.583 24.874,9.382 1.968,49.918 "/>
<path class="st1" d="M2.976,42.899H55.85L37.5,13.119l-3.811,3.591c-0.443,0.416-1.139,0.395-1.555-0.047
	c-0.073-0.077-0.132-0.162-0.178-0.252l-6.891-13.01L2.976,42.899L2.976,42.899z M57.82,45.105H1.099v-0.004
	c-0.181,0-0.365-0.044-0.534-0.139c-0.53-0.295-0.721-0.964-0.426-1.495l23.968-42.86c0.099-0.198,0.26-0.369,0.471-0.48
	c0.538-0.283,1.203-0.077,1.486,0.461l7.167,13.53l3.742-3.525l0.001,0.001c0.053-0.05,0.112-0.095,0.176-0.134
	c0.516-0.319,1.193-0.159,1.512,0.358l20.043,32.527c0.137,0.184,0.218,0.411,0.218,0.658C58.923,44.611,58.429,45.105,57.82,45.105
	z"/>
<polygon class="st1" points="50.184,44.002 39.914,42.273 33.885,43.07 30.166,40.316 25.241,41.395 22.419,39.554 10.799,44.002 
	"/>
</svg>
