<?xml version="1.0" encoding="utf-8"?>
<!-- Generator: Adobe Illustrator 22.0.1, SVG Export Plug-In . SVG Version: 6.00 Build 0)  -->
<svg version="1.1" id="Layer_1" xmlns="http://www.w3.org/2000/svg" xmlns:xlink="http://www.w3.org/1999/xlink" x="0px" y="0px"
	 viewBox="0 0 101.392 13.963" style="enable-background:new 0 0 101.392 13.963;" xml:space="preserve">
<style type="text/css">
	.st0{fill:#FFFFFF;}
</style>
<g>
	<path class="st0" d="M7.629,0.234h3.225v11.424H7.629V0.234z M3.225,11.659H0V0.234h3.225V11.659z M7.852,7.201h-4.85v-2.68h4.85
		V7.201z M12.158,11.659l5.029-11.424h3.18l5.047,11.424h-3.35l-3.948-9.843h1.268l-3.939,9.843H12.158z M14.909,9.434l0.831-2.376
		h5.574l0.831,2.376H14.909z M26.717,11.659V0.234h5.216c1.036,0,1.938,0.17,2.698,0.5c0.75,0.339,1.331,0.831,1.751,1.465
		c0.411,0.634,0.616,1.393,0.616,2.26c0,0.858-0.205,1.608-0.616,2.233c-0.42,0.634-1,1.125-1.751,1.465
		c-0.759,0.339-1.661,0.509-2.698,0.509h-3.421l1.429-1.402v4.395H26.717z M29.942,7.612L28.513,6.12h3.225
		c0.67,0,1.17-0.143,1.51-0.438c0.33-0.295,0.491-0.706,0.491-1.224c0-0.536-0.161-0.947-0.491-1.242
		c-0.339-0.295-0.84-0.438-1.51-0.438h-3.225l1.429-1.492V7.612z M44.216,11.882c-0.911,0-1.751-0.143-2.528-0.438
		c-0.768-0.295-1.438-0.706-2.01-1.251c-0.572-0.536-1.009-1.161-1.331-1.885c-0.313-0.715-0.473-1.501-0.473-2.367
		c0-0.858,0.161-1.644,0.473-2.367c0.322-0.715,0.759-1.34,1.331-1.885c0.572-0.536,1.242-0.956,2.01-1.251
		C42.465,0.152,43.305,0,44.216,0c0.92,0,1.769,0.152,2.528,0.438c0.768,0.295,1.438,0.715,2.001,1.251
		c0.563,0.545,1.009,1.17,1.331,1.885c0.313,0.724,0.473,1.51,0.473,2.367c0,0.866-0.161,1.652-0.473,2.376
		c-0.322,0.724-0.768,1.358-1.331,1.885c-0.563,0.536-1.233,0.947-2.001,1.242C45.984,11.739,45.136,11.882,44.216,11.882
		L44.216,11.882z M44.216,9.211c0.438,0,0.84-0.08,1.215-0.232s0.697-0.375,0.974-0.661s0.5-0.634,0.652-1.036
		c0.161-0.402,0.241-0.849,0.241-1.34c0-0.5-0.08-0.947-0.241-1.34c-0.152-0.402-0.375-0.741-0.652-1.036
		c-0.277-0.286-0.598-0.509-0.974-0.661c-0.375-0.152-0.777-0.223-1.215-0.223s-0.84,0.071-1.215,0.223s-0.697,0.375-0.974,0.661
		c-0.277,0.295-0.5,0.634-0.652,1.036c-0.161,0.393-0.241,0.84-0.241,1.34c0,0.491,0.08,0.938,0.241,1.34
		c0.152,0.402,0.375,0.75,0.652,1.036s0.598,0.509,0.974,0.661C43.376,9.131,43.778,9.211,44.216,9.211L44.216,9.211z
		 M59.481,10.256V2.798h-3.278l-0.045,1.233c-0.027,0.67-0.063,1.286-0.125,1.867C55.97,6.47,55.89,6.997,55.792,7.479
		c-0.107,0.482-0.241,0.893-0.411,1.233c-0.17,0.339-0.375,0.607-0.607,0.795l-3.439-0.411c0.375,0.009,0.688-0.116,0.938-0.384
		c0.241-0.268,0.438-0.643,0.581-1.117c0.152-0.482,0.259-1.045,0.33-1.697s0.125-1.367,0.152-2.144l0.134-3.519h9.182v10.022
		L59.481,10.256L59.481,10.256z M50.995,13.963V9.095h13.211v4.868h-2.948v-2.305H53.96v2.305H50.995z M73.371,0.234h3.233v11.424
		h-3.233V0.234z M68.976,11.659h-3.225V0.234h3.225V11.659z M73.603,7.201h-4.85v-2.68h4.85V7.201z M77.908,11.659l5.029-11.424
		h3.18l5.047,11.424h-3.359l-3.939-9.843h1.268l-3.939,9.843H77.908z M80.659,9.434l0.831-2.376h5.565l0.831,2.376H80.659z
		 M98.22,11.659V8.113l0.768,0.67h-2.885c-1.027,0-1.903-0.17-2.644-0.5c-0.732-0.339-1.304-0.822-1.697-1.456
		c-0.402-0.634-0.598-1.385-0.598-2.251c0-0.902,0.205-1.679,0.625-2.331c0.42-0.643,1.009-1.143,1.778-1.492
		c0.768-0.348,1.661-0.518,2.698-0.518h5.127v11.424H98.22z M91.2,11.659l2.849-4.127h3.242l-2.706,4.127H91.2z M98.22,7.085V1.976
		l0.768,0.804h-2.662c-0.625,0-1.099,0.143-1.42,0.429s-0.482,0.732-0.482,1.313s0.161,1.018,0.482,1.313
		c0.322,0.304,0.777,0.456,1.393,0.456h2.689L98.22,7.085z"/>
</g>
</svg>
