<?xml version="1.0" encoding="utf-8"?>
<!-- Generator: Adobe Illustrator 22.0.1, SVG Export Plug-In . SVG Version: 6.00 Build 0)  -->
<svg version="1.1" id="Layer_1" xmlns="http://www.w3.org/2000/svg" xmlns:xlink="http://www.w3.org/1999/xlink" x="0px" y="0px"
	 viewBox="0 0 66.903 11.882" style="enable-background:new 0 0 66.903 11.882;" xml:space="preserve">
<style type="text/css">
	.st0{fill:#FFFFFF;}
</style>
<g>
	<path class="st0" d="M6.342,11.882c-0.92,0-1.76-0.143-2.528-0.438c-0.768-0.295-1.447-0.706-2.01-1.251
		C1.232,9.657,0.786,9.032,0.473,8.308C0.16,7.593,0,6.807,0,5.941c0-0.858,0.161-1.644,0.473-2.367
		c0.313-0.715,0.759-1.34,1.331-1.885c0.563-0.536,1.242-0.956,2.01-1.251C4.582,0.152,5.422,0,6.342,0s1.76,0.152,2.528,0.438
		c0.768,0.295,1.429,0.715,2.001,1.251c0.563,0.545,1,1.17,1.322,1.885c0.322,0.724,0.482,1.51,0.482,2.367
		c0,0.866-0.161,1.652-0.482,2.376c-0.322,0.724-0.759,1.358-1.322,1.885c-0.572,0.536-1.233,0.947-2.001,1.242
		C8.101,11.739,7.262,11.882,6.342,11.882L6.342,11.882z M6.342,9.212c0.429,0,0.831-0.08,1.206-0.232s0.706-0.375,0.983-0.661
		s0.491-0.634,0.652-1.036c0.152-0.402,0.232-0.849,0.232-1.34c0-0.5-0.08-0.947-0.232-1.34C9.022,4.201,8.808,3.862,8.531,3.567
		C8.254,3.281,7.924,3.058,7.548,2.906C7.173,2.754,6.771,2.683,6.342,2.683c-0.438,0-0.84,0.071-1.215,0.223
		S4.421,3.281,4.144,3.567C3.867,3.862,3.653,4.201,3.492,4.603C3.34,4.996,3.26,5.443,3.26,5.943c0,0.491,0.08,0.938,0.232,1.34
		c0.161,0.402,0.375,0.75,0.652,1.036S4.751,8.828,5.127,8.98C5.502,9.131,5.904,9.212,6.342,9.212L6.342,9.212z M14.55,11.856
		c-0.223,0-0.447-0.018-0.697-0.054c-0.241-0.027-0.5-0.08-0.768-0.143l0.179-2.644c0.152,0.027,0.295,0.045,0.438,0.045
		c0.447,0,0.777-0.17,1.009-0.527s0.384-0.849,0.482-1.492c0.089-0.643,0.152-1.393,0.17-2.251l0.161-4.555h9.191v11.424h-3.18
		V2.075l0.706,0.724h-4.618l0.652-0.75l-0.08,2.608c-0.027,1.108-0.107,2.108-0.223,2.992c-0.125,0.893-0.313,1.644-0.572,2.269
		c-0.259,0.625-0.625,1.108-1.081,1.438C15.855,11.686,15.265,11.856,14.55,11.856L14.55,11.856z M27.154,11.659V0.235h3.18v6.708
		l4.707-6.708h3.028v11.424h-3.171v-6.69l-4.698,6.69H27.154z M40.517,11.659V0.235h2.653l4.707,7.771h-1.402l4.618-7.771h2.653
		l0.027,11.424h-2.974l-0.018-6.905h0.5l-3.43,5.779h-1.438l-3.537-5.779h0.607v6.905H40.517z M56.202,11.659V0.235h10.701v11.424
		h-3.189V2.075l0.715,0.724h-5.752l0.706-0.724v9.584H56.202z"/>
</g>
</svg>
