<?xml version="1.0" encoding="utf-8"?>
<!-- Generator: Adobe Illustrator 22.0.1, SVG Export Plug-In . SVG Version: 6.00 Build 0)  -->
<svg version="1.1" id="Layer_1" xmlns="http://www.w3.org/2000/svg" xmlns:xlink="http://www.w3.org/1999/xlink" x="0px" y="0px"
	 viewBox="0 0 105.501 14.265" style="enable-background:new 0 0 105.501 14.265;" xml:space="preserve">
<style type="text/css">
	.st0{fill:#FFFFFF;}
</style>
<g>
	<path class="st0" d="M7.039,11.281c-1.518,0-2.805-0.197-3.85-0.59c-1.054-0.393-1.84-0.965-2.385-1.724
		C0.268,8.217,0,7.297,0,6.216s0.268-2.01,0.804-2.76c0.545-0.759,1.34-1.331,2.394-1.724c1.054-0.393,2.34-0.59,3.859-0.59
		c0.018,0,0.089,0,0.214,0s0.259,0,0.384,0c0.134,0,0.205,0,0.214,0c1.51,0,2.778,0.197,3.805,0.598
		c1.027,0.393,1.804,0.974,2.34,1.724c0.527,0.759,0.795,1.679,0.795,2.751c0,1.072-0.259,1.983-0.777,2.733
		c-0.509,0.759-1.277,1.34-2.287,1.733c-1.009,0.402-2.251,0.598-3.734,0.598c-0.018,0-0.107,0-0.259,0s-0.295,0-0.438,0
		S7.084,11.281,7.039,11.281L7.039,11.281z M7.334,8.798c0.027,0,0.08,0,0.152,0s0.125,0,0.152,0c0.938,0,1.706-0.089,2.305-0.277
		c0.59-0.188,1.036-0.464,1.313-0.849c0.286-0.384,0.429-0.866,0.429-1.465c0-0.616-0.152-1.108-0.438-1.474
		c-0.295-0.366-0.741-0.643-1.322-0.822c-0.59-0.179-1.34-0.268-2.251-0.268c-0.036,0-0.08,0-0.152,0s-0.134,0-0.188,0
		c-0.983,0-1.778,0.08-2.394,0.259c-0.625,0.17-1.081,0.447-1.367,0.822C3.278,5.099,3.126,5.599,3.126,6.216
		c0,0.616,0.161,1.108,0.482,1.492C3.93,8.083,4.403,8.36,5.028,8.539C5.655,8.709,6.423,8.798,7.334,8.798L7.334,8.798z
		 M5.932,12.505V0H8.88v12.505H5.932z M16.731,9.405c0.643,0.179,1.17,0.241,1.572,0.17c0.411-0.071,0.768-0.339,1.081-0.813
		l0.554-0.813l0.277-0.313l3.555-7.101h3.144l-4.725,8.834c-0.464,0.866-1.018,1.545-1.67,2.028
		c-0.643,0.473-1.358,0.75-2.126,0.813s-1.581-0.08-2.43-0.429L16.731,9.405z M20.17,10.236l-5.216-9.7h3.412L21.93,7.95
		L20.17,10.236z M35.257,10.558V3.1h-3.278l-0.045,1.242c-0.027,0.67-0.063,1.286-0.125,1.867c-0.063,0.572-0.143,1.099-0.241,1.581
		c-0.107,0.473-0.241,0.884-0.411,1.233c-0.17,0.339-0.375,0.607-0.607,0.786l-3.439-0.402c0.375,0.009,0.688-0.116,0.938-0.384
		c0.241-0.268,0.438-0.643,0.581-1.117c0.152-0.482,0.259-1.045,0.33-1.697c0.071-0.661,0.125-1.367,0.152-2.144l0.134-3.528h9.182
		v10.022L35.257,10.558L35.257,10.558z M26.771,14.265V9.406h13.211v4.859h-2.948v-2.296h-7.298v2.296H26.771z M40.616,11.085
		l0.956-2.269c0.491,0.25,1,0.438,1.536,0.572c0.527,0.125,1.045,0.205,1.545,0.223c0.5,0.027,0.956-0.009,1.358-0.098
		c0.411-0.098,0.732-0.241,0.974-0.438c0.241-0.197,0.357-0.447,0.357-0.768c0-0.348-0.143-0.598-0.429-0.759
		c-0.286-0.152-0.67-0.232-1.134-0.232h-2.912V4.949h2.653c0.429,0,0.768-0.089,1.009-0.259c0.241-0.179,0.357-0.411,0.357-0.706
		c0-0.286-0.107-0.509-0.313-0.679c-0.205-0.17-0.482-0.286-0.831-0.357c-0.348-0.071-0.732-0.098-1.17-0.071
		c-0.438,0.018-0.884,0.098-1.349,0.232c-0.473,0.134-0.92,0.322-1.358,0.545l-0.947-2.412c0.777-0.384,1.581-0.643,2.43-0.786
		s1.67-0.17,2.474-0.098c0.804,0.08,1.536,0.259,2.188,0.536s1.17,0.643,1.554,1.099s0.581,1,0.581,1.617
		c0,0.545-0.152,1.027-0.438,1.456c-0.295,0.42-0.697,0.75-1.197,0.991s-1.072,0.357-1.724,0.357l0.08-0.679
		c0.75,0,1.402,0.125,1.965,0.384c0.563,0.268,0.991,0.625,1.304,1.072c0.304,0.456,0.464,0.974,0.464,1.563
		c0,0.554-0.143,1.045-0.438,1.474c-0.286,0.429-0.679,0.795-1.197,1.081c-0.509,0.295-1.09,0.518-1.751,0.661
		c-0.652,0.152-1.358,0.223-2.108,0.214c-0.75,0-1.501-0.098-2.269-0.286C42.072,11.719,41.331,11.442,40.616,11.085L40.616,11.085z
		 M52.344,11.969V0.536h3.18v6.708l4.707-6.708h3.028v11.433h-3.18V5.27l-4.689,6.699H52.344z M72.076,11.969V8.423l0.759,0.67
		H69.95c-1.018,0-1.894-0.17-2.635-0.509c-0.741-0.33-1.304-0.822-1.706-1.447c-0.393-0.634-0.59-1.385-0.59-2.26
		c0-0.902,0.205-1.67,0.625-2.322c0.42-0.643,1.009-1.143,1.778-1.492c0.768-0.348,1.661-0.527,2.698-0.527h5.127v11.433
		C75.247,11.969,72.076,11.969,72.076,11.969z M65.055,11.969l2.849-4.136h3.242l-2.706,4.136H65.055z M72.076,7.396V2.287
		l0.759,0.795h-2.653c-0.634,0-1.108,0.152-1.429,0.438C68.44,3.806,68.28,4.244,68.28,4.833c0,0.581,0.161,1.018,0.473,1.313
		c0.322,0.304,0.786,0.447,1.393,0.447h2.689L72.076,7.396z M77.694,11.969V0.536h2.653l4.707,7.771h-1.402l4.609-7.771h2.662
		l0.027,11.433h-2.974l-0.018-6.905h0.5l-3.439,5.77H83.59l-3.537-5.77h0.607v6.905H77.694z M92.236,11.969l5.038-11.433h3.18
		l5.047,11.433h-3.359l-3.939-9.843h1.268l-3.939,9.843H92.236z M94.996,9.745l0.831-2.385h5.565l0.831,2.385H94.996z"/>
</g>
</svg>
