<?xml version="1.0" encoding="utf-8"?>
<!-- Generator: Adobe Illustrator 22.0.1, SVG Export Plug-In . SVG Version: 6.00 Build 0)  -->
<svg version="1.1" id="Layer_1" xmlns="http://www.w3.org/2000/svg" xmlns:xlink="http://www.w3.org/1999/xlink" x="0px" y="0px"
	 viewBox="0 0 91.815 11.882" style="enable-background:new 0 0 91.815 11.882;" xml:space="preserve">
<style type="text/css">
	.st0{fill:#FFFFFF;}
</style>
<g>
	<path class="st0" d="M0,11.659V0.234h2.653L7.36,8.005H5.967l4.609-7.771h2.653l0.036,11.424h-2.983l-0.018-6.905h0.509
		l-3.439,5.779H5.896L2.368,4.753h0.598v6.905L0,11.659L0,11.659z M21.294,11.882c-0.911,0-1.76-0.143-2.528-0.438
		c-0.768-0.295-1.438-0.706-2.01-1.251c-0.572-0.536-1.009-1.161-1.331-1.885c-0.313-0.715-0.473-1.501-0.473-2.367
		c0-0.858,0.161-1.644,0.473-2.367c0.322-0.715,0.759-1.34,1.331-1.885c0.572-0.536,1.242-0.956,2.01-1.251
		C19.534,0.152,20.383,0,21.294,0c0.92,0,1.769,0.152,2.528,0.438c0.768,0.295,1.438,0.715,2.001,1.251
		c0.563,0.545,1.009,1.17,1.322,1.885c0.322,0.724,0.482,1.51,0.482,2.367c0,0.866-0.161,1.652-0.482,2.376
		c-0.313,0.724-0.759,1.358-1.322,1.885c-0.563,0.536-1.233,0.947-2.001,1.242C23.063,11.739,22.214,11.882,21.294,11.882
		L21.294,11.882z M21.294,9.211c0.429,0,0.84-0.08,1.215-0.232s0.697-0.375,0.974-0.661s0.491-0.634,0.652-1.036
		c0.161-0.402,0.241-0.849,0.241-1.34c0-0.5-0.08-0.947-0.241-1.34C23.974,4.2,23.76,3.861,23.483,3.566
		c-0.277-0.286-0.598-0.509-0.974-0.661c-0.375-0.152-0.786-0.223-1.215-0.223c-0.438,0-0.84,0.071-1.215,0.223
		s-0.697,0.375-0.974,0.661c-0.277,0.295-0.5,0.634-0.652,1.036c-0.161,0.393-0.241,0.84-0.241,1.34c0,0.491,0.08,0.938,0.241,1.34
		c0.152,0.402,0.375,0.75,0.652,1.036s0.598,0.509,0.974,0.661C20.455,9.131,20.856,9.211,21.294,9.211L21.294,9.211z M36.979,0.234
		h3.225v11.424h-3.225V0.234z M32.585,11.659H29.36V0.234h3.225V11.659z M37.212,7.202h-4.859v-2.68h4.859V7.202z M42.651,11.659
		V0.234h9.531v2.492h-6.36v1.849h2.957c1.385,0,2.447,0.295,3.18,0.875c0.732,0.59,1.099,1.438,1.099,2.555
		c0,1.134-0.411,2.037-1.233,2.68c-0.831,0.652-1.983,0.974-3.475,0.974H42.651z M45.822,9.336h2.313
		c0.536,0,0.947-0.107,1.233-0.322c0.286-0.223,0.429-0.527,0.429-0.929c0-0.804-0.554-1.215-1.661-1.215h-2.313L45.822,9.336
		L45.822,9.336z M54.933,11.855c-0.214,0-0.447-0.018-0.697-0.054c-0.241-0.027-0.5-0.08-0.768-0.143l0.179-2.644
		c0.152,0.027,0.295,0.045,0.438,0.045c0.447,0,0.786-0.17,1.009-0.527c0.232-0.357,0.393-0.849,0.482-1.492
		c0.089-0.643,0.152-1.393,0.17-2.251l0.161-4.555h9.191v11.424h-3.18V2.074l0.706,0.724h-4.609l0.652-0.75l-0.089,2.608
		c-0.027,1.108-0.107,2.108-0.223,2.992c-0.116,0.893-0.313,1.644-0.572,2.269s-0.616,1.108-1.081,1.438
		C56.237,11.686,55.648,11.855,54.933,11.855L54.933,11.855z M66.402,11.659l5.029-11.424h3.18l5.047,11.424h-3.35L72.36,1.816
		h1.277l-3.948,9.843H66.402z M69.153,9.435l0.831-2.376h5.574l0.831,2.376H69.153z M88.59,0.234h3.225v11.424H88.59V0.234z
		 M84.187,11.659h-3.225V0.234h3.225V11.659z M88.814,7.202h-4.85v-2.68h4.85V7.202z"/>
</g>
</svg>
