<?xml version="1.0" encoding="utf-8"?>
<!-- Generator: Adobe Illustrator 22.0.1, SVG Export Plug-In . SVG Version: 6.00 Build 0)  -->
<svg version="1.1" id="Layer_1" xmlns="http://www.w3.org/2000/svg" xmlns:xlink="http://www.w3.org/1999/xlink" x="0px" y="0px"
	 viewBox="0 0 72.352 11.425" style="enable-background:new 0 0 72.352 11.425;" xml:space="preserve">
<style type="text/css">
	.st0{fill:#FFFFFF;}
</style>
<g>
	<path class="st0" d="M0,11.425L5.038,0.001h3.171l5.056,11.424H9.906L5.967,1.582h1.268l-3.939,9.843H0z M2.751,9.21l0.831-2.385
		h5.574L9.987,9.21H2.751z M14.569,11.425V0h5.208c1.045,0,1.947,0.17,2.698,0.509c0.759,0.339,1.34,0.822,1.751,1.456
		c0.411,0.643,0.616,1.393,0.616,2.26c0,0.866-0.205,1.608-0.616,2.242c-0.411,0.625-0.991,1.117-1.751,1.456
		c-0.75,0.348-1.652,0.518-2.698,0.518h-3.421l1.438-1.402v4.386H14.569z M17.793,7.379l-1.438-1.483h3.225
		c0.679,0,1.179-0.152,1.51-0.447c0.33-0.286,0.5-0.697,0.5-1.224c0-0.527-0.17-0.947-0.5-1.233c-0.33-0.295-0.831-0.447-1.51-0.447
		h-3.225l1.438-1.483V7.379z M24.582,11.425L29.62,0.001h3.171l5.056,11.424h-3.359l-3.939-9.843h1.268l-3.939,9.843H24.582z
		 M27.333,9.21l0.831-2.385h5.574l0.831,2.385H27.333z M39.151,11.425V0h5.208c1.045,0,1.947,0.17,2.698,0.509
		c0.759,0.339,1.34,0.822,1.751,1.456c0.411,0.643,0.616,1.393,0.616,2.26c0,0.866-0.205,1.608-0.616,2.242
		c-0.411,0.625-0.991,1.117-1.751,1.456c-0.75,0.348-1.652,0.518-2.698,0.518h-3.421l1.438-1.402v4.386H39.151z M42.375,7.379
		l-1.438-1.483h3.225c0.679,0,1.179-0.152,1.51-0.447c0.33-0.286,0.5-0.697,0.5-1.224c0-0.527-0.17-0.947-0.5-1.233
		c-0.33-0.295-0.831-0.447-1.51-0.447h-3.225l1.438-1.483V7.379z M49.164,11.425l5.038-11.424h3.18l5.047,11.424H59.07l-3.939-9.843
		h1.268l-3.939,9.843H49.164z M51.924,9.21l0.831-2.385h5.565l0.831,2.385H51.924z M65.688,11.425V1.85l0.715,0.715h-4.216V0.001
		h10.165v2.564h-4.207L68.86,1.85v9.575H65.688z"/>
</g>
</svg>
