<?xml version="1.0" encoding="utf-8"?>
<!-- Generator: Adobe Illustrator 22.0.1, SVG Export Plug-In . SVG Version: 6.00 Build 0)  -->
<svg version="1.1" id="Layer_1" xmlns="http://www.w3.org/2000/svg" xmlns:xlink="http://www.w3.org/1999/xlink" x="0px" y="0px"
	 viewBox="0 0 82.999 11.918" style="enable-background:new 0 0 82.999 11.918;" xml:space="preserve">
<style type="text/css">
	.st0{fill:#FFFFFF;}
</style>
<g>
	<path class="st0" d="M3.403,7.085V4.7H8.78v2.385H3.403z M4.939,0.002c0.875,0,1.679,0.143,2.412,0.438
		c0.724,0.286,1.358,0.697,1.894,1.224c0.536,0.536,0.956,1.17,1.259,1.894c0.295,0.724,0.447,1.518,0.447,2.385
		c0,0.875-0.152,1.67-0.447,2.394C10.2,9.061,9.78,9.686,9.245,10.222c-0.536,0.536-1.17,0.947-1.894,1.233
		c-0.732,0.286-1.536,0.429-2.412,0.429c-1.063,0-2.019-0.188-2.849-0.563C1.25,10.946,0.554,10.419,0,9.731l2.037-1.858
		C2.403,8.311,2.814,8.641,3.27,8.864c0.447,0.232,0.947,0.348,1.501,0.348c0.438,0,0.831-0.08,1.197-0.232
		c0.357-0.152,0.661-0.375,0.92-0.661c0.25-0.286,0.447-0.634,0.581-1.036c0.143-0.402,0.205-0.849,0.205-1.34
		s-0.063-0.929-0.205-1.34c-0.134-0.402-0.33-0.741-0.581-1.036c-0.259-0.286-0.563-0.509-0.92-0.661
		C5.602,2.754,5.209,2.683,4.771,2.683c-0.554,0-1.054,0.116-1.501,0.339c-0.456,0.232-0.866,0.563-1.233,1L0,2.155
		c0.554-0.697,1.251-1.224,2.09-1.599C2.921,0.19,3.876,0.002,4.939,0.002L4.939,0.002z M12.836,11.855
		c-0.214,0-0.447-0.018-0.688-0.054c-0.25-0.027-0.5-0.08-0.777-0.143l0.179-2.644c0.152,0.027,0.304,0.045,0.438,0.045
		c0.447,0,0.786-0.17,1.018-0.527c0.223-0.357,0.384-0.849,0.473-1.492c0.098-0.643,0.152-1.393,0.17-2.251l0.17-4.555h9.182v11.424
		H19.83V2.074l0.697,0.724h-4.609l0.652-0.75l-0.08,2.608c-0.036,1.108-0.107,2.108-0.232,2.992
		c-0.116,0.893-0.304,1.644-0.572,2.269c-0.259,0.625-0.616,1.108-1.081,1.438C14.14,11.686,13.559,11.855,12.836,11.855
		L12.836,11.855z M31.263,3.87c1.393,0,2.465,0.313,3.233,0.929c0.768,0.625,1.152,1.554,1.152,2.796
		c0,1.34-0.429,2.349-1.295,3.037c-0.857,0.679-2.028,1.027-3.51,1.027h-5.395V0.234h3.18v3.635L31.263,3.87L31.263,3.87z
		 M30.629,9.336c0.545,0,0.974-0.143,1.295-0.438c0.322-0.295,0.482-0.706,0.482-1.242c0-0.545-0.161-0.929-0.482-1.152
		c-0.322-0.223-0.75-0.33-1.295-0.33h-2.001v3.162H30.629z M37.274,11.659V0.234h9.531v2.492h-6.351v1.849h2.948
		c1.385,0,2.447,0.295,3.18,0.875c0.732,0.59,1.099,1.438,1.099,2.555c0,1.134-0.411,2.037-1.233,2.68
		c-0.831,0.652-1.983,0.974-3.475,0.974H37.274z M40.454,9.336h2.313c0.527,0,0.938-0.107,1.224-0.322
		c0.286-0.223,0.438-0.527,0.438-0.929c0-0.804-0.554-1.215-1.661-1.215h-2.313L40.454,9.336L40.454,9.336z M49.342,11.659V0.234
		h5.216c1.045,0,1.938,0.17,2.698,0.5c0.75,0.339,1.34,0.831,1.751,1.465c0.411,0.634,0.616,1.393,0.616,2.26
		c0,0.858-0.205,1.608-0.616,2.233c-0.411,0.634-1,1.125-1.751,1.465c-0.759,0.339-1.652,0.509-2.698,0.509h-3.421l1.429-1.402
		v4.395H49.342z M52.567,7.612L51.138,6.12h3.225c0.679,0,1.179-0.143,1.51-0.438c0.331-0.295,0.491-0.706,0.491-1.224
		c0-0.536-0.161-0.947-0.491-1.242s-0.831-0.438-1.51-0.438h-3.225l1.429-1.492V7.612z M61.481,9.095
		c0.643,0.188,1.17,0.241,1.572,0.17c0.411-0.071,0.768-0.339,1.081-0.804l0.554-0.822l0.277-0.304l3.555-7.101h3.144l-4.725,8.825
		c-0.464,0.875-1.027,1.545-1.67,2.028c-0.643,0.482-1.358,0.75-2.126,0.813c-0.768,0.071-1.581-0.071-2.43-0.42L61.481,9.095z
		 M64.92,9.926l-5.216-9.692h3.403l3.573,7.405L64.92,9.926z M78.095,11.882c-0.902,0-1.733-0.143-2.501-0.429
		c-0.759-0.286-1.42-0.697-1.983-1.233s-1-1.161-1.313-1.885c-0.313-0.724-0.473-1.518-0.473-2.394c0-0.866,0.161-1.661,0.473-2.385
		c0.313-0.724,0.75-1.358,1.313-1.894c0.563-0.527,1.224-0.938,1.983-1.224C76.362,0.143,77.193,0,78.095,0
		c1.054,0,2.001,0.188,2.832,0.554c0.831,0.375,1.519,0.902,2.072,1.599L80.953,4.02c-0.375-0.438-0.777-0.768-1.215-1
		c-0.447-0.223-0.938-0.339-1.474-0.339c-0.473,0-0.902,0.071-1.286,0.223c-0.393,0.152-0.732,0.375-1.009,0.661
		c-0.277,0.295-0.491,0.634-0.652,1.036c-0.152,0.411-0.232,0.849-0.232,1.34c0,0.491,0.08,0.938,0.232,1.34
		c0.161,0.402,0.375,0.75,0.652,1.036s0.616,0.509,1.009,0.661c0.384,0.152,0.813,0.232,1.286,0.232
		c0.536,0,1.027-0.116,1.474-0.348c0.438-0.223,0.84-0.554,1.215-0.991l2.046,1.858c-0.554,0.688-1.242,1.215-2.072,1.59
		C80.096,11.695,79.149,11.882,78.095,11.882L78.095,11.882z"/>
</g>
</svg>
