<?xml version="1.0" encoding="utf-8"?>
<!-- Generator: Adobe Illustrator 22.0.1, SVG Export Plug-In . SVG Version: 6.00 Build 0)  -->
<svg version="1.1" id="Layer_1" xmlns="http://www.w3.org/2000/svg" xmlns:xlink="http://www.w3.org/1999/xlink" x="0px" y="0px"
	 viewBox="0 0 162.585 13.963" style="enable-background:new 0 0 162.585 13.963;" xml:space="preserve">
<style type="text/css">
	.st0{fill:#FFFFFF;}
</style>
<g>
	<path class="st0" d="M7.27,11.659l-3.216-5.44l2.59-1.527l4.252,6.967H7.27z M0,11.659V0.234h3.207v11.424L0,11.659L0,11.659z
		 M2.277,7.282V4.674h4.145v2.608H2.277z M6.958,6.29L3.975,5.96l3.501-5.726h3.394L6.958,6.29z M11.942,11.659V0.234h3.18v6.708
		l4.707-6.708h3.028v11.424h-3.18v-6.69l-4.689,6.69L11.942,11.659L11.942,11.659z M25.742,11.855c-0.223,0-0.447-0.018-0.697-0.054
		c-0.241-0.027-0.5-0.08-0.768-0.143l0.179-2.644c0.152,0.027,0.295,0.045,0.438,0.045c0.447,0,0.777-0.17,1.009-0.527
		c0.223-0.357,0.384-0.849,0.482-1.492c0.089-0.643,0.143-1.393,0.17-2.251l0.161-4.555h9.191v11.424h-3.18V2.074l0.706,0.724
		h-4.618l0.652-0.75l-0.08,2.608c-0.027,1.108-0.107,2.108-0.223,2.992c-0.125,0.893-0.313,1.644-0.572,2.269
		c-0.259,0.625-0.625,1.108-1.081,1.438C27.047,11.686,26.457,11.855,25.742,11.855L25.742,11.855z M38.346,11.659V0.234h3.18v6.708
		l4.707-6.708h3.028v11.424H46.09v-6.69l-4.698,6.69L38.346,11.659L38.346,11.659z M51.709,11.659V0.234h2.653l4.707,7.771h-1.402
		l4.609-7.771h2.662l0.027,11.424h-2.974l-0.018-6.905h0.5l-3.43,5.779h-1.438l-3.537-5.779h0.607v6.905L51.709,11.659
		L51.709,11.659z M66.25,11.659l5.038-11.424h3.18l5.047,11.424h-3.359l-3.939-9.843h1.268l-3.939,9.843H66.25z M69.01,9.435
		l0.831-2.376h5.565l0.831,2.376H69.01z M88.438,0.234h3.233v11.424h-3.233V0.234z M84.044,11.659h-3.225V0.234h3.225V11.659z
		 M88.671,7.202h-4.85v-2.68h4.85V7.202z M101.604,10.256V2.798h-3.269l-0.054,1.233c-0.018,0.67-0.063,1.286-0.125,1.867
		c-0.054,0.572-0.134,1.099-0.241,1.581s-0.241,0.893-0.411,1.233c-0.161,0.339-0.366,0.607-0.607,0.795l-3.439-0.411
		c0.384,0.009,0.697-0.116,0.938-0.384s0.438-0.643,0.59-1.117c0.143-0.482,0.25-1.045,0.322-1.697
		c0.071-0.652,0.125-1.367,0.161-2.144l0.125-3.519h9.191v10.022L101.604,10.256L101.604,10.256z M93.119,13.963V9.095h13.211v4.868
		h-2.948v-2.305h-7.298v2.305H93.119z M120.845,11.659l-2.751-5.44l2.706-1.527l3.761,6.967H120.845z M116.334,7.282V4.674h3.68
		v2.608H116.334z M120.979,6.29l-2.983-0.33l2.992-5.726h3.376L120.979,6.29z M110.537,11.659h-3.734l3.778-6.967l2.724,1.527
		L110.537,11.659z M117.281,11.659h-3.162V0.234h3.162V11.659z M115.065,7.282h-3.698V4.674h3.698V7.282z M110.403,6.29L107,0.234
		h3.385l2.948,5.726L110.403,6.29z M124.185,11.659l5.029-11.424h3.18l5.047,11.424h-3.35l-3.948-9.843h1.277l-3.948,9.843H124.185z
		 M126.937,9.435l0.831-2.376h5.574l0.831,2.376H126.937z M138.745,11.659V0.234h5.216c1.045,0,1.938,0.17,2.698,0.5
		c0.75,0.339,1.34,0.831,1.751,1.465s0.616,1.393,0.616,2.26c0,0.858-0.205,1.608-0.616,2.233c-0.411,0.634-1,1.125-1.751,1.465
		c-0.759,0.339-1.652,0.509-2.698,0.509h-3.421l1.429-1.402v4.395H138.745z M141.97,7.612l-1.429-1.492h3.225
		c0.67,0,1.179-0.143,1.51-0.438c0.33-0.295,0.491-0.706,0.491-1.224c0-0.536-0.161-0.947-0.491-1.242
		c-0.331-0.295-0.84-0.438-1.51-0.438h-3.225l1.429-1.492V7.612z M156.243,11.882c-0.911,0-1.751-0.143-2.528-0.438
		c-0.768-0.295-1.438-0.706-2.01-1.251c-0.572-0.536-1.009-1.161-1.322-1.885c-0.322-0.715-0.473-1.501-0.473-2.367
		c0-0.858,0.152-1.644,0.473-2.367c0.313-0.715,0.75-1.34,1.322-1.885c0.572-0.536,1.242-0.956,2.01-1.251
		C154.492,0.152,155.332,0,156.243,0c0.92,0,1.769,0.152,2.537,0.438c0.759,0.295,1.429,0.715,1.992,1.251
		c0.563,0.545,1.009,1.17,1.331,1.885c0.322,0.724,0.482,1.51,0.482,2.367c0,0.866-0.161,1.652-0.482,2.376
		c-0.322,0.724-0.768,1.358-1.331,1.885c-0.563,0.536-1.233,0.947-1.992,1.242C158.012,11.739,157.163,11.882,156.243,11.882
		L156.243,11.882z M156.243,9.211c0.438,0,0.84-0.08,1.215-0.232s0.697-0.375,0.974-0.661s0.5-0.634,0.652-1.036
		c0.161-0.402,0.241-0.849,0.241-1.34c0-0.5-0.08-0.947-0.241-1.34c-0.152-0.402-0.375-0.741-0.652-1.036
		c-0.277-0.286-0.598-0.509-0.974-0.661c-0.375-0.152-0.777-0.223-1.215-0.223s-0.84,0.071-1.215,0.223s-0.697,0.375-0.974,0.661
		c-0.277,0.295-0.5,0.634-0.652,1.036c-0.161,0.393-0.241,0.84-0.241,1.34c0,0.491,0.08,0.938,0.241,1.34
		c0.152,0.402,0.375,0.75,0.652,1.036s0.598,0.509,0.974,0.661S155.806,9.211,156.243,9.211L156.243,9.211z"/>
</g>
</svg>
