<?xml version="1.0" encoding="utf-8"?>
<!-- Generator: Adobe Illustrator 22.0.1, SVG Export Plug-In . SVG Version: 6.00 Build 0)  -->
<svg version="1.1" id="Layer_1" xmlns="http://www.w3.org/2000/svg" xmlns:xlink="http://www.w3.org/1999/xlink" x="0px" y="0px"
	 viewBox="0 0 86.009 12.847" style="enable-background:new 0 0 86.009 12.847;" xml:space="preserve">
<style type="text/css">
	.st0{fill:#FFFFFF;}
</style>
<g>
	<path class="st0" d="M3.679,7.66V5.081h5.815V7.66H3.679z M5.341,0c0.947,0,1.816,0.155,2.608,0.473
		c0.782,0.309,1.468,0.753,2.048,1.323c0.58,0.58,1.034,1.265,1.362,2.048c0.319,0.782,0.483,1.642,0.483,2.579
		c0,0.947-0.164,1.806-0.483,2.589c-0.328,0.782-0.782,1.459-1.362,2.038c-0.58,0.58-1.265,1.024-2.048,1.333
		c-0.792,0.309-1.661,0.464-2.608,0.464c-1.149,0-2.183-0.203-3.081-0.609C1.352,11.832,0.599,11.262,0,10.519L2.202,8.51
		c0.396,0.473,0.84,0.831,1.333,1.072c0.483,0.251,1.024,0.377,1.623,0.377c0.473,0,0.898-0.087,1.294-0.251
		c0.386-0.164,0.715-0.406,0.995-0.715c0.27-0.309,0.483-0.686,0.628-1.121C8.23,7.437,8.297,6.954,8.297,6.423
		S8.229,5.418,8.075,4.974C7.93,4.539,7.718,4.172,7.447,3.853c-0.28-0.309-0.609-0.551-0.995-0.715
		C6.056,2.974,5.631,2.897,5.158,2.897c-0.599,0-1.14,0.126-1.623,0.367C3.042,3.515,2.598,3.873,2.202,4.346L0,2.327
		c0.599-0.753,1.352-1.323,2.26-1.729C3.158,0.202,4.191,0,5.341,0L5.341,0z M13.725,12.605V0.251h5.989
		c1.478,0,2.627,0.28,3.439,0.831c0.821,0.56,1.227,1.352,1.227,2.376c0,1.005-0.377,1.787-1.14,2.357s-1.787,0.86-3.072,0.86
		l0.357-0.831c1.381,0,2.463,0.27,3.246,0.821c0.782,0.551,1.178,1.352,1.178,2.405c0,1.082-0.425,1.942-1.265,2.579
		c-0.84,0.638-2.048,0.956-3.632,0.956C20.052,12.605,13.725,12.605,13.725,12.605z M17.154,10.094h2.753
		c0.502,0,0.879-0.106,1.14-0.319c0.251-0.222,0.377-0.541,0.377-0.966s-0.126-0.734-0.377-0.947
		c-0.261-0.203-0.638-0.309-1.14-0.309h-2.753V10.094z M17.154,5.187h2.222c0.493,0,0.869-0.097,1.111-0.309
		c0.251-0.203,0.367-0.502,0.367-0.908c0-0.396-0.116-0.705-0.367-0.908c-0.241-0.203-0.618-0.309-1.111-0.309h-2.222V5.187z
		 M30.04,5.032h5.718V7.64H30.04V5.032z M30.282,9.901h6.453v2.705h-9.901V0.251h9.669v2.695h-6.221V9.901z M38.724,12.605V0.251
		h5.632c1.13,0,2.106,0.184,2.917,0.541c0.821,0.367,1.449,0.898,1.893,1.584c0.454,0.686,0.676,1.507,0.676,2.444
		c0,0.927-0.222,1.739-0.676,2.415c-0.444,0.686-1.072,1.217-1.893,1.584c-0.811,0.367-1.787,0.551-2.917,0.551h-3.7l1.555-1.517
		v4.753L38.724,12.605L38.724,12.605z M42.211,8.229l-1.555-1.613h3.497c0.724,0,1.265-0.155,1.623-0.473
		c0.357-0.319,0.541-0.763,0.541-1.323c0-0.58-0.184-1.024-0.541-1.343s-0.898-0.473-1.623-0.473h-3.497l1.555-1.613V8.229z
		 M54.614,5.032h5.728V7.64h-5.728V5.032z M54.856,9.901h6.453v2.705h-9.901V0.251h9.669v2.695h-6.221L54.856,9.901L54.856,9.901z
		 M69.306,12.847c-0.976,0-1.874-0.155-2.705-0.464c-0.831-0.309-1.546-0.753-2.154-1.333c-0.599-0.58-1.072-1.256-1.41-2.038
		c-0.348-0.782-0.512-1.642-0.512-2.589c0-0.937,0.164-1.797,0.512-2.579c0.338-0.782,0.811-1.468,1.41-2.048
		c0.609-0.57,1.323-1.014,2.154-1.323C67.432,0.154,68.33,0,69.306,0c1.14,0,2.154,0.203,3.052,0.599
		c0.898,0.406,1.652,0.976,2.251,1.729l-2.222,2.019c-0.396-0.473-0.84-0.831-1.314-1.082c-0.473-0.241-1.005-0.367-1.594-0.367
		c-0.502,0-0.966,0.077-1.391,0.241s-0.782,0.406-1.082,0.715c-0.299,0.319-0.531,0.686-0.705,1.121
		c-0.174,0.444-0.251,0.918-0.251,1.449s0.077,1.014,0.251,1.449s0.406,0.811,0.705,1.121c0.299,0.309,0.657,0.551,1.082,0.715
		s0.889,0.251,1.391,0.251c0.589,0,1.121-0.126,1.594-0.377c0.473-0.241,0.918-0.599,1.314-1.072l2.222,2.009
		c-0.599,0.744-1.352,1.314-2.251,1.719C71.46,12.644,70.446,12.847,69.306,12.847L69.306,12.847z M78.802,12.605V2.241l0.773,0.782
		h-4.559V0.251h10.993v2.772h-4.55l0.782-0.782v10.364H78.802z"/>
</g>
</svg>
