<?xml version="1.0" encoding="utf-8"?>
<!-- Generator: Adobe Illustrator 22.0.1, SVG Export Plug-In . SVG Version: 6.00 Build 0)  -->
<svg version="1.1" id="Layer_1" xmlns="http://www.w3.org/2000/svg" xmlns:xlink="http://www.w3.org/1999/xlink" x="0px" y="0px"
	 viewBox="0 0 61.338 50" style="enable-background:new 0 0 61.338 50;" xml:space="preserve">
<style type="text/css">
	.st0{fill:#FFFFFF;}
	.st1{fill:#BC32D6;}
	.st2{fill:#E0E72E;}
</style>
<g>
	<polygon class="st0" points="0,50 61.338,50 39.61,18.555 34.428,22.909 25.945,8.629 	"/>
	<polygon class="st1" points="5.42,47.199 55.33,47.198 39.125,23.396 33.8,27.786 25.83,14.713 	"/>
	<g>
		<path class="st0" d="M26.778,12.106V0.721c0-0.398-0.4-0.721-0.893-0.721C25.39,0,24.99,0.323,24.99,0.721v11.385
			c0,0.398,0.4,0.721,0.894,0.721C26.378,12.827,26.778,12.503,26.778,12.106z"/>
		<polygon class="st2" points="40.651,6.589 24.987,6.589 24.987,1.322 40.651,1.322 36.54,3.955 		"/>
	</g>
</g>
</svg>
